<svg xmlns="http://www.w3.org/2000/svg" viewBox="0 0 400 400">
  <defs>
    <linearGradient id="g5" x1="0" y1="0" x2="1" y2="0">
      <stop offset="0" stop-color="#ff6a3d"/>
      <stop offset="1" stop-color="#35d0ba"/>
    </linearGradient>
  </defs>
  <rect x="80" y="150" width="240" height="110" rx="16" fill="#1b222c" stroke="#3a4656" stroke-width="3"/>
  <g fill="#26303c">
    <rect x="100" y="168" width="26" height="20" rx="4"/><rect x="132" y="168" width="26" height="20" rx="4"/>
    <rect x="164" y="168" width="26" height="20" rx="4"/><rect x="196" y="168" width="26" height="20" rx="4"/>
    <rect x="228" y="168" width="26" height="20" rx="4"/><rect x="260" y="168" width="26" height="20" rx="4"/>
    <rect x="100" y="196" width="26" height="20" rx="4"/><rect x="132" y="196" width="26" height="20" rx="4"/>
    <rect x="164" y="196" width="26" height="20" rx="4"/><rect x="196" y="196" width="26" height="20" rx="4"/>
    <rect x="228" y="196" width="26" height="20" rx="4"/><rect x="260" y="196" width="26" height="20" rx="4"/>
    <rect x="100" y="224" width="90" height="20" rx="4"/><rect x="196" y="224" width="90" height="20" rx="4"/>
  </g>
  <rect x="100" y="168" width="26" height="4" fill="url(#g5)"/>
  <rect x="164" y="196" width="26" height="4" fill="url(#g5)"/>
  <rect x="228" y="168" width="26" height="4" fill="url(#g5)"/>
</svg>
